<?xml version="1.0" encoding="UTF-8" standalone="no"?>
<!DOCTYPE svg PUBLIC "-//W3C//DTD SVG 1.1//EN"
 "http://www.w3.org/Graphics/SVG/1.1/DTD/svg11.dtd">
<!-- Generated by graphviz version 2.40.1 (20161225.0304)
 -->
<!-- Title: state transitions Pages: 1 -->
<svg width="984pt" height="386pt"
 viewBox="0.00 0.00 984.00 386.00" xmlns="http://www.w3.org/2000/svg" xmlns:xlink="http://www.w3.org/1999/xlink">
<g id="graph0" class="graph" transform="scale(1 1) rotate(0) translate(4 382)">
<title>state transitions</title>
<polygon fill="#ffffff" stroke="transparent" points="-4,4 -4,-382 980,-382 980,4 -4,4"/>
<!-- initial -->
<g id="node1" class="node state initial">
<title>initial</title>
<ellipse fill="#000000" stroke="#000000" stroke-width="2" cx="567" cy="-360" rx="5.5" ry="5.5"/>
</g>
<!-- New -->
<g id="node2" class="node state regular">
<title>New</title>
<polygon fill="#ffffff" fill-opacity="0.003922" stroke="transparent" stroke-width="2" points="595,-309 539,-309 539,-273 595,-273 595,-309"/>
<text text-anchor="start" x="555.0018" y="-287.2" font-family="Helvetica,sans-Serif" font-size="12.00" fill="#000000">New</text>
<path fill="none" stroke="#000000" stroke-width="2" d="M551.3333,-274C551.3333,-274 582.6667,-274 582.6667,-274 588.3333,-274 594,-279.6667 594,-285.3333 594,-285.3333 594,-296.6667 594,-296.6667 594,-302.3333 588.3333,-308 582.6667,-308 582.6667,-308 551.3333,-308 551.3333,-308 545.6667,-308 540,-302.3333 540,-296.6667 540,-296.6667 540,-285.3333 540,-285.3333 540,-279.6667 545.6667,-274 551.3333,-274"/>
</g>
<!-- initial&#45;&gt;New -->
<g id="edge1" class="edge transition">
<title>initial&#45;&gt;New</title>
<path fill="none" stroke="#000000" d="M567,-354.1171C567,-346.4279 567,-332.4223 567,-319.5545"/>
<polygon fill="#000000" stroke="#000000" points="570.5001,-319.1768 567,-309.1769 563.5001,-319.1769 570.5001,-319.1768"/>
<text text-anchor="start" x="567" y="-325" font-family="Helvetica,sans-Serif" font-size="10.00" fill="#000000">PeerConnection object created &#160;&#160;</text>
</g>
<!-- Checking -->
<g id="node3" class="node state regular">
<title>Checking</title>
<polygon fill="#ffffff" fill-opacity="0.003922" stroke="transparent" stroke-width="2" points="409,-240 337,-240 337,-204 409,-204 409,-240"/>
<text text-anchor="start" x="347.9956" y="-218.2" font-family="Helvetica,sans-Serif" font-size="12.00" fill="#000000">Checking</text>
<path fill="none" stroke="#000000" stroke-width="2" d="M349.3333,-205C349.3333,-205 396.6667,-205 396.6667,-205 402.3333,-205 408,-210.6667 408,-216.3333 408,-216.3333 408,-227.6667 408,-227.6667 408,-233.3333 402.3333,-239 396.6667,-239 396.6667,-239 349.3333,-239 349.3333,-239 343.6667,-239 338,-233.3333 338,-227.6667 338,-227.6667 338,-216.3333 338,-216.3333 338,-210.6667 343.6667,-205 349.3333,-205"/>
</g>
<!-- New&#45;&gt;Checking -->
<g id="edge2" class="edge transition">
<title>New&#45;&gt;Checking</title>
<path fill="none" stroke="#000000" d="M538.6093,-285.1496C514.6017,-279.8089 479.5004,-271.0683 449.983,-260 438.4259,-255.6664 426.2901,-250.16 415.1595,-244.6932"/>
<polygon fill="#000000" stroke="#000000" points="416.5884,-241.4943 406.0809,-240.1369 413.4485,-247.7506 416.5884,-241.4943"/>
<text text-anchor="start" x="450" y="-251" font-family="Helvetica,sans-Serif" font-size="10.00" fill="#000000">pc.setRemoteDescription(description) &#160;&#160;</text>
</g>
<!-- Checking&#45;&gt;Checking -->
<g id="edge9" class="edge transition">
<title>Checking&#45;&gt;Checking</title>
<path fill="none" stroke="#000000" d="M409.25,-228C421.3333,-228 431,-226 431,-222 431,-219.25 426.431,-217.4453 419.6489,-216.5859"/>
<polygon fill="#000000" stroke="#000000" points="419.4311,-213.0682 409.25,-216 419.0372,-220.0571 419.4311,-213.0682"/>
<text text-anchor="start" x="431" y="-219" font-family="Helvetica,sans-Serif" font-size="10.00" fill="#000000">pc.addIceCandidate(icecandidate) &#160;&#160;</text>
</g>
<!-- Connected -->
<g id="node4" class="node state regular">
<title>Connected</title>
<polygon fill="#ffffff" fill-opacity="0.003922" stroke="transparent" stroke-width="2" points="80,-176 0,-176 0,-140 80,-140 80,-176"/>
<text text-anchor="start" x="10.9888" y="-154.2" font-family="Helvetica,sans-Serif" font-size="12.00" fill="#000000">Connected</text>
<path fill="none" stroke="#000000" stroke-width="2" d="M12.3333,-141C12.3333,-141 67.6667,-141 67.6667,-141 73.3333,-141 79,-146.6667 79,-152.3333 79,-152.3333 79,-163.6667 79,-163.6667 79,-169.3333 73.3333,-175 67.6667,-175 67.6667,-175 12.3333,-175 12.3333,-175 6.6667,-175 1,-169.3333 1,-163.6667 1,-163.6667 1,-152.3333 1,-152.3333 1,-146.6667 6.6667,-141 12.3333,-141"/>
</g>
<!-- Checking&#45;&gt;Connected -->
<g id="edge3" class="edge transition">
<title>Checking&#45;&gt;Connected</title>
<path fill="none" stroke="#000000" d="M336.7091,-220.5069C251.8371,-216.8395 46.7769,-206.8914 36.695,-196 34.1899,-193.2938 32.9311,-189.9668 32.4948,-186.4172"/>
<polygon fill="#000000" stroke="#000000" points="36.0051,-186.3408 33.092,-176.1543 29.0169,-185.9341 36.0051,-186.3408"/>
<text text-anchor="start" x="37" y="-187" font-family="Helvetica,sans-Serif" font-size="10.00" fill="#000000">ICE check terminé pour au moins une paire par composant?? &#160;&#160;</text>
</g>
<!-- Completed -->
<g id="node5" class="node state regular">
<title>Completed</title>
<polygon fill="#ffffff" fill-opacity="0.003922" stroke="transparent" stroke-width="2" points="286,-100 206,-100 206,-64 286,-64 286,-100"/>
<text text-anchor="start" x="216.9954" y="-78.2" font-family="Helvetica,sans-Serif" font-size="12.00" fill="#000000">Completed</text>
<path fill="none" stroke="#000000" stroke-width="2" d="M218.3333,-65C218.3333,-65 273.6667,-65 273.6667,-65 279.3333,-65 285,-70.6667 285,-76.3333 285,-76.3333 285,-87.6667 285,-87.6667 285,-93.3333 279.3333,-99 273.6667,-99 273.6667,-99 218.3333,-99 218.3333,-99 212.6667,-99 207,-93.3333 207,-87.6667 207,-87.6667 207,-76.3333 207,-76.3333 207,-70.6667 212.6667,-65 218.3333,-65"/>
</g>
<!-- Checking&#45;&gt;Completed -->
<g id="edge4" class="edge transition">
<title>Checking&#45;&gt;Completed</title>
<path fill="none" stroke="#000000" d="M368.8829,-203.996C362.2897,-179.079 347.0452,-134.1983 318,-108 311.6162,-102.2419 303.8614,-97.7337 295.8361,-94.2114"/>
<polygon fill="#000000" stroke="#000000" points="296.9449,-90.8871 286.3567,-90.5135 294.4009,-97.4085 296.9449,-90.8871"/>
<text text-anchor="start" x="360" y="-155" font-family="Helvetica,sans-Serif" font-size="10.00" fill="#000000">ICE check terminé &#160;&#160;</text>
</g>
<!-- Failed -->
<g id="node6" class="node state regular">
<title>Failed</title>
<polygon fill="#ffffff" fill-opacity="0.003922" stroke="transparent" stroke-width="2" points="681,-176 625,-176 625,-140 681,-140 681,-176"/>
<text text-anchor="start" x="636.6656" y="-154.2" font-family="Helvetica,sans-Serif" font-size="12.00" fill="#000000">Failed</text>
<path fill="none" stroke="#000000" stroke-width="2" d="M637.3333,-141C637.3333,-141 668.6667,-141 668.6667,-141 674.3333,-141 680,-146.6667 680,-152.3333 680,-152.3333 680,-163.6667 680,-163.6667 680,-169.3333 674.3333,-175 668.6667,-175 668.6667,-175 637.3333,-175 637.3333,-175 631.6667,-175 626,-169.3333 626,-163.6667 626,-163.6667 626,-152.3333 626,-152.3333 626,-146.6667 631.6667,-141 637.3333,-141"/>
</g>
<!-- Checking&#45;&gt;Failed -->
<g id="edge10" class="edge transition">
<title>Checking&#45;&gt;Failed</title>
<path fill="none" stroke="#000000" d="M392.3586,-203.7745C401.3268,-196.3916 412.5346,-188.5495 424.041,-184 457.7681,-170.6648 558.5732,-163.1767 614.5204,-159.9426"/>
<polygon fill="#000000" stroke="#000000" points="614.9601,-163.4236 624.7487,-159.3699 614.5687,-156.4345 614.9601,-163.4236"/>
<text text-anchor="start" x="425" y="-187" font-family="Helvetica,sans-Serif" font-size="10.00" fill="#000000">timeout/&quot;comparaison des ICE a échoué&quot;?? &#160;&#160;</text>
</g>
<!-- Connected&#45;&gt;Completed -->
<g id="edge5" class="edge transition">
<title>Connected&#45;&gt;Completed</title>
<path fill="none" stroke="#000000" d="M34.7081,-139.7212C32.857,-129.204 32.8194,-116.4422 40.308,-108 50.4759,-96.5373 138.1186,-88.8205 195.6742,-84.9377"/>
<polygon fill="#000000" stroke="#000000" points="195.9436,-88.4277 205.6927,-84.2798 195.4848,-81.4427 195.9436,-88.4277"/>
<text text-anchor="start" x="41" y="-117" font-family="Helvetica,sans-Serif" font-size="10.00" fill="#000000">ICE check terminé &#160;&#160;</text>
</g>
<!-- Completed&#45;&gt;Connected -->
<g id="edge6" class="edge transition">
<title>Completed&#45;&gt;Connected</title>
<path fill="none" stroke="#000000" d="M205.8565,-89.5413C189.9636,-93.5738 171.9467,-99.509 156.951,-108 143.2803,-115.7407 144.693,-124.2988 131,-132 118.4388,-139.0647 103.8026,-144.3405 89.9879,-148.2239"/>
<polygon fill="#000000" stroke="#000000" points="88.9013,-144.8904 80.1153,-150.8112 90.6759,-151.6617 88.9013,-144.8904"/>
<text text-anchor="start" x="157" y="-123" font-family="Helvetica,sans-Serif" font-size="10.00" fill="#000000">pc.restartIce() &#160;&#160;</text>
<text text-anchor="start" x="157" y="-111" font-family="Helvetica,sans-Serif" font-size="10.00" fill="#000000">pc.addIceCandidate(icecandidate) &#160;&#160;</text>
</g>
<!-- Disconnected -->
<g id="node7" class="node state regular">
<title>Disconnected</title>
<polygon fill="#ffffff" fill-opacity="0.003922" stroke="transparent" stroke-width="2" points="323,-36 229,-36 229,0 323,0 323,-36"/>
<text text-anchor="start" x="239.6574" y="-14.2" font-family="Helvetica,sans-Serif" font-size="12.00" fill="#000000">Disconnected</text>
<path fill="none" stroke="#000000" stroke-width="2" d="M241.3333,-1C241.3333,-1 310.6667,-1 310.6667,-1 316.3333,-1 322,-6.6667 322,-12.3333 322,-12.3333 322,-23.6667 322,-23.6667 322,-29.3333 316.3333,-35 310.6667,-35 310.6667,-35 241.3333,-35 241.3333,-35 235.6667,-35 230,-29.3333 230,-23.6667 230,-23.6667 230,-12.3333 230,-12.3333 230,-6.6667 235.6667,-1 241.3333,-1"/>
</g>
<!-- Completed&#45;&gt;Disconnected -->
<g id="edge7" class="edge transition">
<title>Completed&#45;&gt;Disconnected</title>
<path fill="none" stroke="#000000" d="M247.4367,-63.9746C248.2147,-59.0226 249.4115,-53.6407 253.3504,-45.2384"/>
<polygon fill="#000000" stroke="#000000" points="256.5544,-46.6624 258.0428,-36.1726 250.3377,-43.4446 256.5544,-46.6624"/>
<text text-anchor="middle" x="255.3895" y="-47" font-family="Helvetica,sans-Serif" font-size="10.00" fill="#000000"> </text>
</g>
<!-- Failed&#45;&gt;New -->
<g id="edge11" class="edge transition">
<title>Failed&#45;&gt;New</title>
<path fill="none" stroke="#000000" d="M652.5037,-176.1658C651.0113,-198.2224 645.5229,-235.5038 626,-260 620.2888,-267.1661 612.4648,-272.8652 604.3818,-277.3192"/>
<polygon fill="#000000" stroke="#000000" points="602.6616,-274.265 595.2445,-281.8305 605.7607,-280.5417 602.6616,-274.265"/>
<text text-anchor="start" x="649" y="-219" font-family="Helvetica,sans-Serif" font-size="10.00" fill="#000000">pc.restartIce() &#160;&#160;</text>
</g>
<!-- Disconnected&#45;&gt;Checking -->
<g id="edge12" class="edge transition">
<title>Disconnected&#45;&gt;Checking</title>
<path fill="none" stroke="#000000" d="M323.2496,-24.9867C342.9426,-28.9775 365.6776,-35.0307 385,-44 480.142,-88.164 527.6935,-90.3808 575,-184 577.4053,-188.7601 578.5223,-191.9953 575,-196 564.8875,-207.4976 475.9771,-215.3395 419.5336,-219.2089"/>
<polygon fill="#000000" stroke="#000000" points="419.1433,-215.7271 409.3985,-219.8852 419.6094,-222.7116 419.1433,-215.7271"/>
<text text-anchor="start" x="541" y="-117" font-family="Helvetica,sans-Serif" font-size="10.00" fill="#000000">pc.restartIce() &#160;&#160;</text>
</g>
<!-- Disconnected&#45;&gt;Completed -->
<g id="edge8" class="edge transition">
<title>Disconnected&#45;&gt;Completed</title>
<path fill="none" stroke="#000000" d="M267.358,-36.4363C264.7102,-42.0849 261.7381,-48.4254 258.8718,-54.5402"/>
<polygon fill="#000000" stroke="#000000" points="255.5918,-53.2912 254.5166,-63.8314 261.9301,-56.2623 255.5918,-53.2912"/>
<text text-anchor="start" x="264" y="-47" font-family="Helvetica,sans-Serif" font-size="10.00" fill="#000000">liveness check (timeout) &#160;&#160;</text>
</g>
<!-- Closed -->
<g id="node8" class="node state regular">
<title>Closed</title>
<polygon fill="#ffffff" fill-opacity="0.003922" stroke="transparent" stroke-width="2" points="976,-314 660,-314 660,-268 976,-268 976,-314"/>
<text text-anchor="start" x="799.331" y="-297.2" font-family="Helvetica,sans-Serif" font-size="12.00" fill="#000000">Closed</text>
<text text-anchor="start" x="665.9462" y="-277.2" font-family="Helvetica,sans-Serif" font-size="12.00" fill="#000000">ICE Agent closed and does not handle requests anymore</text>
<polygon fill="#000000" stroke="#000000" points="660,-291 660,-291 976,-291 976,-291 660,-291"/>
<path fill="none" stroke="#000000" stroke-width="2" d="M673,-269C673,-269 963,-269 963,-269 969,-269 975,-275 975,-281 975,-281 975,-301 975,-301 975,-307 969,-313 963,-313 963,-313 673,-313 673,-313 667,-313 661,-307 661,-301 661,-301 661,-281 661,-281 661,-275 667,-269 673,-269"/>
</g>
<!-- final -->
<g id="node10" class="node state final">
<title>final</title>
<ellipse fill="#000000" stroke="#000000" stroke-width="2" cx="818" cy="-222" rx="5.5" ry="5.5"/>
<ellipse fill="none" stroke="#000000" stroke-width="2" cx="818" cy="-222" rx="9.5" ry="9.5"/>
</g>
<!-- Closed&#45;&gt;final -->
<g id="edge14" class="edge transition">
<title>Closed&#45;&gt;final</title>
<path fill="none" stroke="#000000" d="M818,-267.6397C818,-259.146 818,-249.6432 818,-241.5168"/>
<polygon fill="#000000" stroke="#000000" points="821.5001,-241.5126 818,-231.5127 814.5001,-241.5127 821.5001,-241.5126"/>
<text text-anchor="start" x="818" y="-251" font-family="Helvetica,sans-Serif" font-size="10.00" fill="#000000">PeerConnection object deleted &#160;&#160;</text>
</g>
<!-- all -->
<g id="node9" class="node state regular">
<title>all</title>
<polygon fill="#ffffff" fill-opacity="0.003922" stroke="transparent" stroke-width="2" points="846,-378 790,-378 790,-342 846,-342 846,-378"/>
<text text-anchor="start" x="812.0018" y="-356.2" font-family="Helvetica,sans-Serif" font-size="12.00" fill="#000000">all</text>
<path fill="none" stroke="#000000" stroke-width="2" d="M802.3333,-343C802.3333,-343 833.6667,-343 833.6667,-343 839.3333,-343 845,-348.6667 845,-354.3333 845,-354.3333 845,-365.6667 845,-365.6667 845,-371.3333 839.3333,-377 833.6667,-377 833.6667,-377 802.3333,-377 802.3333,-377 796.6667,-377 791,-371.3333 791,-365.6667 791,-365.6667 791,-354.3333 791,-354.3333 791,-348.6667 796.6667,-343 802.3333,-343"/>
</g>
<!-- all&#45;&gt;Closed -->
<g id="edge13" class="edge transition">
<title>all&#45;&gt;Closed</title>
<path fill="none" stroke="#000000" d="M818,-341.8711C818,-336.4482 818,-330.3229 818,-324.2494"/>
<polygon fill="#000000" stroke="#000000" points="821.5001,-324.21 818,-314.21 814.5001,-324.21 821.5001,-324.21"/>
<text text-anchor="middle" x="819.3895" y="-325" font-family="Helvetica,sans-Serif" font-size="10.00" fill="#000000"> </text>
</g>
</g>
</svg>
