<?xml version="1.0" encoding="UTF-8" standalone="no"?><svg xmlns="http://www.w3.org/2000/svg" xmlns:xlink="http://www.w3.org/1999/xlink" contentStyleType="text/css" height="471px" preserveAspectRatio="none" style="width:1606px;height:471px;background:#FFFFFF;" version="1.1" viewBox="0 0 1606 471" width="1606px" zoomAndPan="magnify"><defs/><g><!--cluster local--><g id="cluster_local"><path d="M19.5,42 L342.5,42 A12.5,12.5 0 0 1 355,54.5 L355,63.2969 L7,63.2969 L7,54.5 A12.5,12.5 0 0 1 19.5,42 " fill="#F1F1F1" style="stroke:#F1F1F1;stroke-width:1.0;"/><rect fill="none" height="416" rx="12.5" ry="12.5" style="stroke:#181818;stroke-width:0.5;" width="348" x="7" y="42"/><line style="stroke:#181818;stroke-width:0.5;" x1="7" x2="355" y1="63.2969" y2="63.2969"/><text fill="#000000" font-family="sans-serif" font-size="14" lengthAdjust="spacing" textLength="136" x="113" y="58.9951">Local peer signaling</text></g><!--cluster remote--><g id="cluster_remote"><path d="M1184.5,7 L1580.5,7 A12.5,12.5 0 0 1 1593,19.5 L1593,28.2969 L1172,28.2969 L1172,19.5 A12.5,12.5 0 0 1 1184.5,7 " fill="#F1F1F1" style="stroke:#F1F1F1;stroke-width:1.0;"/><rect fill="none" height="458" rx="12.5" ry="12.5" style="stroke:#181818;stroke-width:0.5;" width="421" x="1172" y="7"/><line style="stroke:#181818;stroke-width:0.5;" x1="1172" x2="1593" y1="28.2969" y2="28.2969"/><text fill="#000000" font-family="sans-serif" font-size="14" lengthAdjust="spacing" textLength="156" x="1304.5" y="23.9951">Remote peer signaling</text></g><g id="local.havelocaloffer"><rect fill="#F1F1F1" height="64.2344" rx="12.5" ry="12.5" style="stroke:#181818;stroke-width:0.5;" width="255" x="53.5" y="370"/><line style="stroke:#181818;stroke-width:0.5;" x1="53.5" x2="308.5" y1="396.2969" y2="396.2969"/><text fill="#000000" font-family="sans-serif" font-size="14" lengthAdjust="spacing" textLength="105" x="128.5" y="387.9951">have-local-offer</text><text fill="#000000" font-family="sans-serif" font-size="12" lengthAdjust="spacing" textLength="157" x="58.5" y="412.4355">The local peer has called</text><text fill="#000000" font-family="sans-serif" font-size="12" lengthAdjust="spacing" textLength="235" x="58.5" y="426.4043">pc.setLocalDescription() successfully.</text></g><g id="local.haveremotepranswer"><rect fill="#F1F1F1" height="64.2344" rx="12.5" ry="12.5" style="stroke:#181818;stroke-width:0.5;" width="300" x="31" y="149"/><line style="stroke:#181818;stroke-width:0.5;" x1="31" x2="331" y1="175.2969" y2="175.2969"/><text fill="#000000" font-family="sans-serif" font-size="14" lengthAdjust="spacing" textLength="157" x="102.5" y="166.9951">have-remote-pranswer</text><text fill="#000000" font-family="sans-serif" font-size="12" lengthAdjust="spacing" textLength="280" x="36" y="191.4355">Provisional answer received and successfully</text><text fill="#000000" font-family="sans-serif" font-size="12" lengthAdjust="spacing" textLength="210" x="36" y="205.4043">applied. pc.setLocalDescription().</text></g><g id="remote.haveremoteoffer"><rect fill="#F1F1F1" height="78.2031" rx="12.5" ry="12.5" style="stroke:#181818;stroke-width:0.5;" width="309" x="1228" y="363"/><line style="stroke:#181818;stroke-width:0.5;" x1="1228" x2="1537" y1="389.2969" y2="389.2969"/><text fill="#000000" font-family="sans-serif" font-size="14" lengthAdjust="spacing" textLength="124" x="1320.5" y="380.9951">have-remote-offer</text><text fill="#000000" font-family="sans-serif" font-size="12" lengthAdjust="spacing" textLength="289" x="1233" y="405.4355">The remote peer has delivered an offer, which</text><text fill="#000000" font-family="sans-serif" font-size="12" lengthAdjust="spacing" textLength="282" x="1233" y="419.4043">the local peer set as the remote description.</text><text fill="#000000" font-family="sans-serif" font-size="12" lengthAdjust="spacing" textLength="168" x="1233" y="433.373">pc.setRemoteDescription()</text></g><g id="remote.havelocalpranswer"><rect fill="#F1F1F1" height="92.1719" rx="12.5" ry="12.5" style="stroke:#181818;stroke-width:0.5;" width="373" x="1196" y="114"/><line style="stroke:#181818;stroke-width:0.5;" x1="1196" x2="1569" y1="140.2969" y2="140.2969"/><text fill="#000000" font-family="sans-serif" font-size="14" lengthAdjust="spacing" textLength="138" x="1313.5" y="131.9951">have-local-pranswer</text><text fill="#000000" font-family="sans-serif" font-size="12" lengthAdjust="spacing" textLength="275" x="1201" y="156.4355">Offer sent by remote peer has been applied</text><text fill="#000000" font-family="sans-serif" font-size="12" lengthAdjust="spacing" textLength="338" x="1201" y="170.4043">and an answer has been created (pc.createAnswer())</text><text fill="#000000" font-family="sans-serif" font-size="12" lengthAdjust="spacing" textLength="242" x="1201" y="184.373">and applied.  pc.setLocalDescription().</text><text fill="#000000" font-family="sans-serif" font-size="12" lengthAdjust="spacing" textLength="353" x="1201" y="198.3418">Further ICE candidates will be delivered separately later.</text></g><g id="stable"><rect fill="#F1F1F1" height="64.2344" rx="12.5" ry="12.5" style="stroke:#181818;stroke-width:0.5;" width="206" x="660.5" y="179"/><line style="stroke:#181818;stroke-width:0.5;" x1="660.5" x2="866.5" y1="205.2969" y2="205.2969"/><text fill="#000000" font-family="sans-serif" font-size="14" lengthAdjust="spacing" textLength="42" x="742.5" y="196.9951">stable</text><text fill="#000000" font-family="sans-serif" font-size="12" lengthAdjust="spacing" textLength="186" x="665.5" y="221.4355">No ongoing exchange of offer</text><text fill="#000000" font-family="sans-serif" font-size="12" lengthAdjust="spacing" textLength="155" x="665.5" y="235.4043">and answer is underway.</text></g><g id="closed"><rect fill="#F1F1F1" height="50.2656" rx="12.5" ry="12.5" style="stroke:#181818;stroke-width:0.5;" width="255" x="636" y="278"/><line style="stroke:#181818;stroke-width:0.5;" x1="636" x2="891" y1="304.2969" y2="304.2969"/><text fill="#000000" font-family="sans-serif" font-size="14" lengthAdjust="spacing" textLength="46" x="740.5" y="295.9951">closed</text><text fill="#000000" font-family="sans-serif" font-size="12" lengthAdjust="spacing" textLength="235" x="641" y="320.4355">RTCPeerConnection has been closed.</text></g><!--reverse link local to stable--><!--link stable to remote--><!--link stable to closed--><!--link havelocaloffer to haveremoteoffer--><g id="link_havelocaloffer_haveremoteoffer"><path d="M308.95,402 C528.9,402 980.36,402 1221.45,402 " fill="none" id="havelocaloffer-to-haveremoteoffer" style="stroke:#181818;stroke-width:1.0;stroke-dasharray:1.0,3.0;"/><polygon fill="#181818" points="1226.3,402,1217.3,398,1221.3,402,1217.3,406,1226.3,402" style="stroke:#181818;stroke-width:1.0;"/><text fill="#000000" font-family="sans-serif" font-size="13" lengthAdjust="spacing" textLength="271" x="628" y="398.0669">Offer sent to peer through server signaling</text></g><!--reverse link havelocaloffer to stable--><g id="link_havelocaloffer_stable"><path d="M315.14,381.65 C427.76,363.47 574.37,337.12 597,320 C620.46,302.25 605.02,280.55 627,261 C636.74,252.33 648.12,245.13 660.06,239.14 " fill="none" id="havelocaloffer-backto-stable" style="stroke:#181818;stroke-width:1.0;"/><polygon fill="#181818" points="310.29,382.43,319.8075,384.9632,315.2276,381.6428,318.548,377.063,310.29,382.43" style="stroke:#181818;stroke-width:1.0;"/><text fill="#000000" font-family="sans-serif" font-size="13" lengthAdjust="spacing" textLength="183" x="396.5" y="316.0669">pc.setLocalDescription(offer)</text></g><!--link havelocaloffer to stable--><g id="link_havelocaloffer_stable"><path d="M231.97,369.71 C270.71,345.97 326.48,314.56 379,295 C468.95,261.49 575.99,239.43 654.1,226.36 " fill="none" id="havelocaloffer-to-stable" style="stroke:#181818;stroke-width:1.0;"/><polygon fill="#181818" points="658.65,225.61,649.1114,223.1575,653.7192,226.4389,650.4377,231.0467,658.65,225.61" style="stroke:#181818;stroke-width:1.0;"/><text fill="#000000" font-family="sans-serif" font-size="13" lengthAdjust="spacing" textLength="216" x="380" y="234.0669">pc.setRemoteDescription(answer)</text></g><!--link stable to haveremoteoffer--><g id="link_stable_haveremoteoffer"><path d="M866.76,239.34 C878.73,245.29 890.17,252.44 900,261 C921.3,279.54 907.23,300.31 930,317 C953.82,334.46 1101.19,360.17 1221.18,378.73 " fill="none" id="stable-to-haveremoteoffer" style="stroke:#181818;stroke-width:1.0;"/><polygon fill="#181818" points="1226.1,379.49,1217.8245,374.15,1221.1598,378.719,1216.5908,382.0543,1226.1,379.49" style="stroke:#181818;stroke-width:1.0;"/><text fill="#000000" font-family="sans-serif" font-size="13" lengthAdjust="spacing" textLength="183" x="947.5" y="313.0669">pc.setLocalDescription(offer)</text></g><!--reverse link stable to haveremoteoffer--><g id="link_stable_haveremoteoffer"><path d="M872.76,226.96 C950.58,240.09 1057.32,261.52 1148,292 C1203.86,310.77 1263.94,339.28 1309.17,362.57 " fill="none" id="stable-backto-haveremoteoffer" style="stroke:#181818;stroke-width:1.0;"/><polygon fill="#181818" points="868.23,226.2,876.4601,231.6097,873.1635,227.0127,877.7605,223.7161,868.23,226.2" style="stroke:#181818;stroke-width:1.0;"/><text fill="#000000" font-family="sans-serif" font-size="13" lengthAdjust="spacing" textLength="216" x="931" y="234.0669">pc.setRemoteDescription(answer)</text></g><!--link havelocaloffer to havelocaloffer--><g id="link_havelocaloffer_havelocaloffer"><path d="M126.19,369.6 C115.96,351.59 134.23,335 181,335 C222.65,335 241.7,348.16 238.14,363.76 " fill="none" id="havelocaloffer-to-havelocaloffer" style="stroke:#181818;stroke-width:1.0;"/><polygon fill="#181818" points="236.37,368.19,243.4264,361.3193,238.227,363.5476,235.9986,358.3481,236.37,368.19" style="stroke:#181818;stroke-width:1.0;"/><text fill="#000000" font-family="sans-serif" font-size="13" lengthAdjust="spacing" textLength="4" x="179" y="266.0669"> </text><text fill="#000000" font-family="sans-serif" font-size="13" lengthAdjust="spacing" textLength="4" x="179" y="281.1997"> </text><text fill="#000000" font-family="sans-serif" font-size="13" lengthAdjust="spacing" textLength="4" x="179" y="296.3325"> </text><text fill="#000000" font-family="sans-serif" font-size="13" lengthAdjust="spacing" textLength="4" x="179" y="311.4653"> </text><text fill="#000000" font-family="sans-serif" font-size="13" lengthAdjust="spacing" textLength="183" x="89.5" y="326.5981">pc.setLocalDescription(offer)</text></g><!--link havelocaloffer to haveremotepranswer--><g id="link_havelocaloffer_haveremotepranswer"><path d="M181,369.86 C181,330.01 181,262.14 181,219.53 " fill="none" id="havelocaloffer-to-haveremotepranswer" style="stroke:#181818;stroke-width:1.0;"/><polygon fill="#181818" points="181,214.69,177,223.69,181,219.69,185,223.69,181,214.69" style="stroke:#181818;stroke-width:1.0;"/><text fill="#000000" font-family="sans-serif" font-size="13" lengthAdjust="spacing" textLength="232" x="53.5" y="296.0669">pc.setRemoteDescription(PRanswer)</text></g><!--link haveremotepranswer to haveremotepranswer--><g id="link_haveremotepranswer_haveremotepranswer"><path d="M126.19,148.6 C115.96,130.59 134.23,114 181,114 C222.65,114 241.7,127.16 238.14,142.76 " fill="none" id="haveremotepranswer-to-haveremotepranswer" style="stroke:#181818;stroke-width:1.0;"/><polygon fill="#181818" points="236.37,147.19,243.4264,140.3193,238.227,142.5476,235.9986,137.3481,236.37,147.19" style="stroke:#181818;stroke-width:1.0;"/><text fill="#000000" font-family="sans-serif" font-size="13" lengthAdjust="spacing" textLength="232" x="65" y="105.0669">pc.setRemoteDescription(PRanswer)</text></g><!--link haveremotepranswer to stable--><g id="link_haveremotepranswer_stable"><path d="M331.49,188.73 C432.21,193.93 562.76,200.68 653.67,205.38 " fill="none" id="haveremotepranswer-to-stable" style="stroke:#181818;stroke-width:1.0;"/><polygon fill="#181818" points="658.63,205.63,649.848,201.1717,653.6366,205.3725,649.4359,209.1611,658.63,205.63" style="stroke:#181818;stroke-width:1.0;"/><text fill="#000000" font-family="sans-serif" font-size="13" lengthAdjust="spacing" textLength="216" x="380" y="188.0669">pc.setRemoteDescription(answer)</text></g><!--link haveremoteoffer to haveremoteoffer--><g id="link_haveremoteoffer_haveremoteoffer"><path d="M1319.51,362.79 C1312.19,344.27 1333.19,328 1382.5,328 C1426.42,328 1447.88,340.9 1446.87,356.81 " fill="none" id="haveremoteoffer-to-haveremoteoffer" style="stroke:#181818;stroke-width:1.0;"/><polygon fill="#181818" points="1445.83,361.31,1451.758,353.445,1446.9585,356.439,1443.9645,351.6394,1445.83,361.31" style="stroke:#181818;stroke-width:1.0;"/><text fill="#000000" font-family="sans-serif" font-size="13" lengthAdjust="spacing" textLength="4" x="1380.5" y="259.0669"> </text><text fill="#000000" font-family="sans-serif" font-size="13" lengthAdjust="spacing" textLength="4" x="1380.5" y="274.1997"> </text><text fill="#000000" font-family="sans-serif" font-size="13" lengthAdjust="spacing" textLength="4" x="1380.5" y="289.3325"> </text><text fill="#000000" font-family="sans-serif" font-size="13" lengthAdjust="spacing" textLength="4" x="1380.5" y="304.4653"> </text><text fill="#000000" font-family="sans-serif" font-size="13" lengthAdjust="spacing" textLength="183" x="1291" y="319.5981">pc.setLocalDescription(offer)</text></g><!--link haveremoteoffer to havelocalpranswer--><g id="link_haveremoteoffer_havelocalpranswer"><path d="M1382.5,362.58 C1382.5,321.77 1382.5,257.8 1382.5,212.68 " fill="none" id="haveremoteoffer-to-havelocalpranswer" style="stroke:#181818;stroke-width:1.0;"/><polygon fill="#181818" points="1382.5,207.96,1378.5,216.96,1382.5,212.96,1386.5,216.96,1382.5,207.96" style="stroke:#181818;stroke-width:1.0;"/><text fill="#000000" font-family="sans-serif" font-size="13" lengthAdjust="spacing" textLength="232" x="1255" y="289.0669">pc.setRemoteDescription(PRanswer)</text></g><!--link havelocalpranswer to havelocalpranswer--><g id="link_havelocalpranswer_havelocalpranswer"><path d="M1318.57,113.79 C1314.56,94.92 1335.87,79 1382.5,79 C1423.66,79 1445.1,91.41 1446.8,107.3 " fill="none" id="havelocalpranswer-to-havelocalpranswer" style="stroke:#181818;stroke-width:1.0;"/><polygon fill="#181818" points="1446.52,112.28,1451.0284,103.5236,1446.8061,107.2882,1443.0415,103.0659,1446.52,112.28" style="stroke:#181818;stroke-width:1.0;"/><text fill="#000000" font-family="sans-serif" font-size="13" lengthAdjust="spacing" textLength="232" x="1266.5" y="70.0669">pc.setRemoteDescription(PRanswer)</text></g><!--reverse link stable to havelocalpranswer--><g id="link_stable_havelocalpranswer"><path d="M873.08,202.03 C962.2,194.66 1090.42,184.06 1195.79,175.35 " fill="none" id="stable-backto-havelocalpranswer" style="stroke:#181818;stroke-width:1.0;"/><polygon fill="#181818" points="868.24,202.43,877.5403,205.671,873.2228,202.016,876.8779,197.6985,868.24,202.43" style="stroke:#181818;stroke-width:1.0;"/><text fill="#000000" font-family="sans-serif" font-size="13" lengthAdjust="spacing" textLength="216" x="931" y="176.0669">pc.setRemoteDescription(answer)</text></g><!--SRC=[bLNDRjim3BxxAOYU4c3E0-HWOCWsOC2m1a5lMm-EnLW2LCcGvAJ1i7SVBSMENSbTxVmu9gcFvCUVSC4GyALnLs1eAoCQ9xJA99uSE0r6rDm14mOhBy-iAnq2VHybPk6sXPyQjAgrK3NWQyLBLIFe4xrFQ0QZKZ7ws0iQ41PQnT1SokkcXtpueQjIGeEajw9MfIIu1oWjIA_uam5TDrjUdZ7tyjmxyNQTqCk2tyvyAjh24ySRdFV3wHGzI6H9wwRQM7G-hYztRbPhi6rLeRMdLiekWRU16NpH3lF6X7I7u8Ay5mykf-8jx8q-2qkUACmROKG_YZCoJ-BO-on8sJHI8DlC9h79_WxK7_pX5FS1Da7-BSSf-q4ufNya2_oRaREk00obwCowv4BBV88B5nLFGxXf2Ictphkx0u_QU9E629I4f2USP3Cz5bNIYwD2JgHRUEoyKO3AmV4QfNr4L7sLO0uYp4pV1SEnoY25o615cOJVdxt5Qhr-5wdlYNUQOkRujzOGnGQ-xxxIn2Wc63crS15IKaYZ6bfiIaCwUGL9D-FRh9BQ8jl2uMctf_ntMgcmJqOfUPEm3MXTGFwB2yPGFNURA2z2oIEbNq-a3UJEgWDubaq7dEoOTiJZSn7toAXuj0PzrHmtkgqv2SrvF2X3p9ChRvky-EXAyTfr6eVfYygBkIwUWugI3M29a7whyFeFNXAkIEwUkVdQ7uB5EejFtMDRZfQ6wulV___CuOnZYX9S2ZAEvOwJf-gtWFS8hqZDwCTednnwsnABMO_GRkEwXFGeksKO_m00]--></g></svg>