<?xml version="1.0" encoding="UTF-8" standalone="no"?><svg xmlns="http://www.w3.org/2000/svg" xmlns:xlink="http://www.w3.org/1999/xlink" contentStyleType="text/css" height="601px" preserveAspectRatio="none" style="width:975px;height:601px;background:#FFFFFF;" version="1.1" viewBox="0 0 975 601" width="975px" zoomAndPan="magnify"><defs/><g><ellipse cx="224" cy="32" fill="#222222" rx="10" ry="10" style="stroke:none;stroke-width:1.0;"/><g id="New"><rect fill="#F1F1F1" height="50" rx="12.5" ry="12.5" style="stroke:#181818;stroke-width:0.5;" width="50" x="199" y="134"/><line style="stroke:#181818;stroke-width:0.5;" x1="199" x2="249" y1="160.2969" y2="160.2969"/><text fill="#000000" font-family="sans-serif" font-size="14" lengthAdjust="spacing" textLength="30" x="209" y="151.9951">New</text></g><g id="Checking"><rect fill="#F1F1F1" height="50" rx="12.5" ry="12.5" style="stroke:#181818;stroke-width:0.5;" width="85" x="368.5" y="261"/><line style="stroke:#181818;stroke-width:0.5;" x1="368.5" x2="453.5" y1="287.2969" y2="287.2969"/><text fill="#000000" font-family="sans-serif" font-size="14" lengthAdjust="spacing" textLength="65" x="378.5" y="278.9951">Checking</text></g><g id="Connected"><rect fill="#F1F1F1" height="50" rx="12.5" ry="12.5" style="stroke:#181818;stroke-width:0.5;" width="97" x="362.5" y="403"/><line style="stroke:#181818;stroke-width:0.5;" x1="362.5" x2="459.5" y1="429.2969" y2="429.2969"/><text fill="#000000" font-family="sans-serif" font-size="14" lengthAdjust="spacing" textLength="77" x="372.5" y="420.9951">Connected</text></g><g id="Completed"><rect fill="#F1F1F1" height="50" rx="12.5" ry="12.5" style="stroke:#181818;stroke-width:0.5;" width="96" x="206" y="545"/><line style="stroke:#181818;stroke-width:0.5;" x1="206" x2="302" y1="571.2969" y2="571.2969"/><text fill="#000000" font-family="sans-serif" font-size="14" lengthAdjust="spacing" textLength="76" x="216" y="562.9951">Completed</text></g><g id="Disconnected"><rect fill="#F1F1F1" height="50" rx="12.5" ry="12.5" style="stroke:#181818;stroke-width:0.5;" width="117" x="137.5" y="403"/><line style="stroke:#181818;stroke-width:0.5;" x1="137.5" x2="254.5" y1="429.2969" y2="429.2969"/><text fill="#000000" font-family="sans-serif" font-size="14" lengthAdjust="spacing" textLength="97" x="147.5" y="420.9951">Disconnected</text></g><g id="Failed"><rect fill="#F1F1F1" height="50" rx="12.5" ry="12.5" style="stroke:#181818;stroke-width:0.5;" width="60" x="7" y="261"/><line style="stroke:#181818;stroke-width:0.5;" x1="7" x2="67" y1="287.2969" y2="287.2969"/><text fill="#000000" font-family="sans-serif" font-size="14" lengthAdjust="spacing" textLength="40" x="17" y="278.9951">Failed</text></g><g id="all"><rect fill="#F1F1F1" height="50" rx="12.5" ry="12.5" style="stroke:#181818;stroke-width:0.5;" width="50" x="721" y="7"/><line style="stroke:#181818;stroke-width:0.5;" x1="721" x2="771" y1="33.2969" y2="33.2969"/><text fill="#000000" font-family="sans-serif" font-size="14" lengthAdjust="spacing" textLength="14" x="739" y="24.9951">all</text></g><g id="Closed"><rect fill="#F1F1F1" height="50" rx="12.5" ry="12.5" style="stroke:#181818;stroke-width:0.5;" width="68" x="712" y="134"/><line style="stroke:#181818;stroke-width:0.5;" x1="712" x2="780" y1="160.2969" y2="160.2969"/><text fill="#000000" font-family="sans-serif" font-size="14" lengthAdjust="spacing" textLength="48" x="722" y="151.9951">Closed</text></g><ellipse cx="746" cy="286" fill="none" rx="10" ry="10" style="stroke:#222222;stroke-width:1.0;"/><ellipse cx="746.5" cy="286.5" fill="#222222" rx="6" ry="6" style="stroke:none;stroke-width:1.0;"/><!--link *start to New--><g id="link_*start_New"><path d="M224,42.4 C224,60.16 224,99.39 224,127.21 " fill="none" id="*start-to-New" style="stroke:#181818;stroke-width:1.0;"/><polygon fill="#181818" points="224,132.16,228,123.16,224,127.16,220,123.16,224,132.16" style="stroke:#181818;stroke-width:1.0;"/><text fill="#000000" font-family="sans-serif" font-size="13" lengthAdjust="spacing" textLength="221" x="225" y="100.0669">RTCPeerConnection object created</text></g><!--link New to Checking--><g id="link_New_Checking"><path d="M249.22,176.86 C280.01,197.44 332.51,232.53 369.33,257.15 " fill="none" id="New-to-Checking" style="stroke:#181818;stroke-width:1.0;"/><polygon fill="#181818" points="373.39,259.86,368.1203,251.5395,369.2297,257.0865,363.6827,258.1959,373.39,259.86" style="stroke:#181818;stroke-width:1.0;"/><text fill="#000000" font-family="sans-serif" font-size="13" lengthAdjust="spacing" textLength="241" x="330" y="227.0669">pc.setRemoteDescription(description)</text></g><!--link Checking to Connected--><g id="link_Checking_Connected"><path d="M411,311.39 C411,335.07 411,371.11 411,396.64 " fill="none" id="Checking-to-Connected" style="stroke:#181818;stroke-width:1.0;"/><polygon fill="#181818" points="411,401.38,415,392.38,411,396.38,407,392.38,411,401.38" style="stroke:#181818;stroke-width:1.0;"/><text fill="#000000" font-family="sans-serif" font-size="13" lengthAdjust="spacing" textLength="168" x="422.5" y="354.0669">ICE check terminé pour au</text><text fill="#000000" font-family="sans-serif" font-size="13" lengthAdjust="spacing" textLength="189" x="412" y="369.1997">moins une paire de candidats</text></g><!--link Checking to Completed--><g id="link_Checking_Completed"><path d="M453.8,292.52 C506.43,300.3 591.13,316.33 610,341 C635.64,374.52 709.27,397.37 604,515 C565.75,557.74 397.34,566.87 308.81,568.67 " fill="none" id="Checking-to-Completed" style="stroke:#181818;stroke-width:1.0;"/><polygon fill="#181818" points="303.83,568.76,312.9082,572.5792,308.829,568.66,312.7482,564.5808,303.83,568.76" style="stroke:#181818;stroke-width:1.0;"/><text fill="#000000" font-family="sans-serif" font-size="13" lengthAdjust="spacing" textLength="115" x="659" y="432.5669">ICE check terminé</text></g><!--link Connected to Completed--><g id="link_Connected_Completed"><path d="M447.93,453.41 C469.65,470.8 489.99,494.61 474,515 C453.8,540.75 366.88,555.84 308.53,563.25 " fill="none" id="Connected-to-Completed" style="stroke:#181818;stroke-width:1.0;"/><polygon fill="#181818" points="303.77,563.84,313.2017,566.6761,308.7303,563.211,312.1953,558.7396,303.77,563.84" style="stroke:#181818;stroke-width:1.0;"/><text fill="#000000" font-family="sans-serif" font-size="13" lengthAdjust="spacing" textLength="115" x="480" y="503.5669">ICE check terminé</text></g><!--reverse link Connected to Completed--><g id="link_Connected_Completed"><path d="M355.95,431.23 C318.6,435.97 271.67,448.91 247,483 C234.18,500.72 238.26,526.2 244.13,544.82 " fill="none" id="Connected-backto-Completed" style="stroke:#181818;stroke-width:1.0;"/><polygon fill="#181818" points="360.83,430.67,351.4228,427.7537,355.8645,431.2567,352.3615,435.6984,360.83,430.67" style="stroke:#181818;stroke-width:1.0;"/><text fill="#000000" font-family="sans-serif" font-size="13" lengthAdjust="spacing" textLength="90" x="311.5" y="496.0669">pc.restartIce()</text><text fill="#000000" font-family="sans-serif" font-size="13" lengthAdjust="spacing" textLength="217" x="248" y="511.1997">pc.addIceCandidate(icecandidate)</text></g><!--reverse link Disconnected to Completed--><g id="link_Disconnected_Completed"><path d="M201.18,459.46 C204.68,476.29 210.12,497.32 218,515 C222.59,525.29 229.08,535.78 235.3,544.75 " fill="none" id="Disconnected-backto-Completed" style="stroke:#181818;stroke-width:1.0;"/><polygon fill="#181818" points="200.27,454.94,198.1235,464.5521,201.2561,459.8418,205.9664,462.9744,200.27,454.94" style="stroke:#181818;stroke-width:1.0;"/></g><!--link Disconnected to Completed--><g id="link_Disconnected_Completed"><path d="M137.16,439.31 C81.74,451.65 11.46,475.71 42,515 C61.13,539.62 142.91,554.87 199.12,562.64 " fill="none" id="Disconnected-to-Completed" style="stroke:#181818;stroke-width:1.0;"/><polygon fill="#181818" points="204,563.3,195.6183,558.1282,199.0452,562.6289,194.5446,566.0558,204,563.3" style="stroke:#181818;stroke-width:1.0;"/><text fill="#000000" font-family="sans-serif" font-size="13" lengthAdjust="spacing" textLength="156" x="43" y="503.5669">liveness check (timeout)</text></g><!--link Checking to Checking--><g id="link_Checking_Checking"><path d="M453.64,274.26 C472.38,273.22 488.5,277.13 488.5,286 C488.5,293.83 475.94,297.8 460.1,297.9 " fill="none" id="Checking-to-Checking" style="stroke:#181818;stroke-width:1.0;"/><polygon fill="#181818" points="455.16,297.78,464.0539,302.0107,460.1583,297.9089,464.2601,294.0133,455.16,297.78" style="stroke:#181818;stroke-width:1.0;"/><text fill="#000000" font-family="sans-serif" font-size="13" lengthAdjust="spacing" textLength="217" x="494.5" y="290.5669">pc.addIceCandidate(icecandidate)</text></g><!--reverse link Failed to Checking--><g id="link_Failed_Checking"><path d="M73.76,286 C143.34,286 293.91,286 368.02,286 " fill="none" id="Failed-backto-Checking" style="stroke:#181818;stroke-width:1.0;"/><polygon fill="#181818" points="68.8,286,77.8,290,73.8,286,77.8,282,68.8,286" style="stroke:#181818;stroke-width:1.0;"/><text fill="#000000" font-family="sans-serif" font-size="13" lengthAdjust="spacing" textLength="265" x="85.25" y="279.0669">timeout/comparaison des ICE a échoué??</text></g><!--reverse link New to Failed--><g id="link_New_Failed"><path d="M193.39,180.46 C158.58,203.73 102.1,241.48 67.39,264.69 " fill="none" id="New-backto-Failed" style="stroke:#181818;stroke-width:1.0;"/><polygon fill="#181818" points="197.52,177.7,187.8167,179.3872,193.3663,180.4834,192.2701,186.033,197.52,177.7" style="stroke:#181818;stroke-width:1.0;"/><text fill="#000000" font-family="sans-serif" font-size="13" lengthAdjust="spacing" textLength="90" x="143" y="227.0669">pc.restartIce()</text></g><!--reverse link Checking to Disconnected--><g id="link_Checking_Disconnected"><path d="M362.78,311.2 C346.08,320.06 327.43,330.5 311,341 C280.96,360.2 248.6,384.78 225.88,402.74 " fill="none" id="Checking-backto-Disconnected" style="stroke:#181818;stroke-width:1.0;"/><polygon fill="#181818" points="367.03,308.96,357.2025,309.6081,362.6045,311.287,360.9256,316.689,367.03,308.96" style="stroke:#181818;stroke-width:1.0;"/><text fill="#000000" font-family="sans-serif" font-size="13" lengthAdjust="spacing" textLength="90" x="312" y="361.5669">pc.restartIce()</text></g><!--link all to Closed--><g id="link_all_Closed"><path d="M746,57.4 C746,77.36 746,105.7 746,127.22 " fill="none" id="all-to-Closed" style="stroke:#181818;stroke-width:1.0;"/><polygon fill="#181818" points="746,132.15,750,123.15,746,127.15,742,123.15,746,132.15" style="stroke:#181818;stroke-width:1.0;"/></g><!--link Closed to *end--><g id="link_Closed_*end"><path d="M746,184.4 C746,209.53 746,247.95 746,269.31 " fill="none" id="Closed-to-*end" style="stroke:#181818;stroke-width:1.0;"/><polygon fill="#181818" points="746,274.09,750,265.09,746,269.09,742,265.09,746,274.09" style="stroke:#181818;stroke-width:1.0;"/><text fill="#000000" font-family="sans-serif" font-size="13" lengthAdjust="spacing" textLength="220" x="747" y="227.0669">RTCPeerConnection object deleted</text></g><!--SRC=[bL8xSi8m5EnrYbSQPaXwYb2OP8Ocas7I0OKYRS9BPCaZoU5Cd8EBHJQ6O0F9e4Q_j_jMgrqCLzGPez43FMCpflbh_WBut5aB5TbPSc-VQKNAGqPe8L9P3wlTnYPyleRwOlinfbBT1SGv2XSnHL2Uovegqx_hWH27-ew8jZ7qc6Rv8wcwXY9ymNQtfT9LdcIrj8LZ6wYoe5Ao1scGabQpbZ5SPIvAWolCujZt5aXxUuHKPVS5oGUF4AMFCuLiiBJfG6gTDdah5Xah79IZDkMCrE0z9jef1tLW5gURIseDVyCYX5Po5hc0g-95qtiVzv- -CtohxqcogLkthUvLKYEzv90YbFwzCL3IRglMhjfj9nCXzeZJ83N-DJ7iEISkl7XlzgdqBa8QSvxntBYG_DjFlRl5SFL7_ZKQRty0]--></g></svg>